<svg xmlns="http://www.w3.org/2000/svg" viewBox="0 0 24 24"><path fill="#000" fill-rule="evenodd" d="M8.3 3h7.4l-1.6 3h1.1c3.3 2.2 5.3 5 5.3 8.3 0 4.2-3.6 6.7-8.5 6.7s-8.5-2.5-8.5-6.7C3.5 11 5.5 8.2 8.8 6h1.1L8.3 3Zm4.6 6h-1.8v1.2c-1.7.3-2.8 1.3-2.8 2.7 0 1.8 1.5 2.4 3.4 2.8v1.4c-.9-.1-1.7-.5-2.4-1.1l-1.2 1.5c1 .9 2.1 1.4 3.6 1.5V20h1.8v-1.1c1.8-.3 2.9-1.3 2.9-2.8 0-1.9-1.5-2.5-3.5-2.9v-1.3c.8.1 1.5.4 2.1.9l1.1-1.5c-.9-.7-1.9-1.1-3.2-1.2V9Zm-1.2 2.7v1.2c-.8-.2-1.2-.4-1.2-.7s.4-.5 1.2-.5Zm1.2 4.3v-1.3c.8.2 1.3.4 1.3.7s-.4.5-1.3.6Z" clip-rule="evenodd"/></svg>
